%TF.GenerationSoftware,KiCad,Pcbnew,10.0.3*%
%TF.CreationDate,2026-05-29T13:02:23-04:00*%
%TF.ProjectId,AnalogIRRemoteReciever,416e616c-6f67-4495-9252-656d6f746552,rev?*%
%TF.SameCoordinates,Original*%
%TF.FileFunction,Soldermask,Bot*%
%TF.FilePolarity,Negative*%
%FSLAX46Y46*%
G04 Gerber Fmt 4.6, Leading zero omitted, Abs format (unit mm)*
G04 Created by KiCad (PCBNEW 10.0.3) date 2026-05-29 13:02:23*
%MOMM*%
%LPD*%
G01*
G04 APERTURE LIST*
G04 Aperture macros list*
%AMRoundRect*
0 Rectangle with rounded corners*
0 $1 Rounding radius*
0 $2 $3 $4 $5 $6 $7 $8 $9 X,Y pos of 4 corners*
0 Add a 4 corners polygon primitive as box body*
4,1,4,$2,$3,$4,$5,$6,$7,$8,$9,$2,$3,0*
0 Add four circle primitives for the rounded corners*
1,1,$1+$1,$2,$3*
1,1,$1+$1,$4,$5*
1,1,$1+$1,$6,$7*
1,1,$1+$1,$8,$9*
0 Add four rect primitives between the rounded corners*
20,1,$1+$1,$2,$3,$4,$5,0*
20,1,$1+$1,$4,$5,$6,$7,0*
20,1,$1+$1,$6,$7,$8,$9,0*
20,1,$1+$1,$8,$9,$2,$3,0*%
G04 Aperture macros list end*
%ADD10R,1.560000X1.560000*%
%ADD11C,1.560000*%
%ADD12C,1.600000*%
%ADD13R,1.600000X1.600000*%
%ADD14O,1.600000X1.600000*%
%ADD15RoundRect,0.250000X0.550000X-0.550000X0.550000X0.550000X-0.550000X0.550000X-0.550000X-0.550000X0*%
%ADD16R,1.800000X1.800000*%
%ADD17C,1.800000*%
G04 APERTURE END LIST*
D10*
%TO.C,RV1*%
X150916000Y-98598000D03*
D11*
X153416000Y-103598000D03*
X155916000Y-98598000D03*
%TD*%
D12*
%TO.C,R8*%
X145034000Y-129540000D03*
X152654000Y-129540000D03*
%TD*%
%TO.C,R7*%
X129540000Y-70866000D03*
X137160000Y-70866000D03*
%TD*%
%TO.C,R6*%
X129540000Y-66294000D03*
X137160000Y-66294000D03*
%TD*%
%TO.C,R5*%
X101092000Y-127254000D03*
X108712000Y-127254000D03*
%TD*%
%TO.C,R3*%
X157226000Y-86106000D03*
X164846000Y-86106000D03*
%TD*%
%TO.C,R2*%
X157734000Y-76962000D03*
X165354000Y-76962000D03*
%TD*%
%TO.C,R1*%
X176784000Y-87376000D03*
X184404000Y-87376000D03*
%TD*%
%TO.C,C4*%
X146832000Y-122682000D03*
X149332000Y-122682000D03*
%TD*%
%TO.C,C3*%
X118404000Y-130810000D03*
X120904000Y-130810000D03*
%TD*%
%TO.C,C2*%
X170200000Y-89408000D03*
X172700000Y-89408000D03*
%TD*%
%TO.C,C1*%
X170962000Y-81534000D03*
X173462000Y-81534000D03*
%TD*%
D13*
%TO.C,A1*%
X87640000Y-61976000D03*
D14*
X87640000Y-64516000D03*
X87640000Y-67056000D03*
X87640000Y-69596000D03*
X87640000Y-72136000D03*
X87640000Y-74676000D03*
X87640000Y-77216000D03*
X87640000Y-79756000D03*
X87640000Y-82296000D03*
X87640000Y-84836000D03*
X87640000Y-87376000D03*
X87640000Y-89916000D03*
X87640000Y-92456000D03*
X87640000Y-94996000D03*
X87640000Y-97536000D03*
X102880000Y-97536000D03*
X102880000Y-94996000D03*
X102880000Y-92456000D03*
X102880000Y-89916000D03*
X102880000Y-87376000D03*
X102880000Y-84836000D03*
X102880000Y-82296000D03*
X102880000Y-79756000D03*
X102880000Y-77216000D03*
X102880000Y-74676000D03*
X102880000Y-72136000D03*
X102880000Y-69596000D03*
X102880000Y-67056000D03*
X102880000Y-64516000D03*
X102880000Y-61976000D03*
%TD*%
D15*
%TO.C,U1*%
X179578000Y-124455000D03*
D12*
X182118000Y-124455000D03*
X184658000Y-124455000D03*
X187198000Y-124455000D03*
X189738000Y-124455000D03*
X192278000Y-124455000D03*
X194818000Y-124455000D03*
X194818000Y-116835000D03*
X192278000Y-116835000D03*
X189738000Y-116835000D03*
X187198000Y-116835000D03*
X184658000Y-116835000D03*
X182118000Y-116835000D03*
X179578000Y-116835000D03*
%TD*%
%TO.C,R4*%
X101092000Y-132080000D03*
X108712000Y-132080000D03*
%TD*%
D16*
%TO.C,D1*%
X170942000Y-135128000D03*
D17*
X173482000Y-135128000D03*
%TD*%
M02*
