%TF.GenerationSoftware,KiCad,Pcbnew,10.0.3*%
%TF.CreationDate,2026-05-29T13:02:23-04:00*%
%TF.ProjectId,AnalogIRRemoteReciever,416e616c-6f67-4495-9252-656d6f746552,rev?*%
%TF.SameCoordinates,Original*%
%TF.FileFunction,Copper,L1,Top*%
%TF.FilePolarity,Positive*%
%FSLAX46Y46*%
G04 Gerber Fmt 4.6, Leading zero omitted, Abs format (unit mm)*
G04 Created by KiCad (PCBNEW 10.0.3) date 2026-05-29 13:02:23*
%MOMM*%
%LPD*%
G01*
G04 APERTURE LIST*
G04 Aperture macros list*
%AMRoundRect*
0 Rectangle with rounded corners*
0 $1 Rounding radius*
0 $2 $3 $4 $5 $6 $7 $8 $9 X,Y pos of 4 corners*
0 Add a 4 corners polygon primitive as box body*
4,1,4,$2,$3,$4,$5,$6,$7,$8,$9,$2,$3,0*
0 Add four circle primitives for the rounded corners*
1,1,$1+$1,$2,$3*
1,1,$1+$1,$4,$5*
1,1,$1+$1,$6,$7*
1,1,$1+$1,$8,$9*
0 Add four rect primitives between the rounded corners*
20,1,$1+$1,$2,$3,$4,$5,0*
20,1,$1+$1,$4,$5,$6,$7,0*
20,1,$1+$1,$6,$7,$8,$9,0*
20,1,$1+$1,$8,$9,$2,$3,0*%
G04 Aperture macros list end*
%TA.AperFunction,ComponentPad*%
%ADD10R,1.560000X1.560000*%
%TD*%
%TA.AperFunction,ComponentPad*%
%ADD11C,1.560000*%
%TD*%
%TA.AperFunction,ComponentPad*%
%ADD12C,1.600000*%
%TD*%
%TA.AperFunction,ComponentPad*%
%ADD13R,1.600000X1.600000*%
%TD*%
%TA.AperFunction,ComponentPad*%
%ADD14O,1.600000X1.600000*%
%TD*%
%TA.AperFunction,ComponentPad*%
%ADD15RoundRect,0.250000X0.550000X-0.550000X0.550000X0.550000X-0.550000X0.550000X-0.550000X-0.550000X0*%
%TD*%
%TA.AperFunction,ComponentPad*%
%ADD16R,1.800000X1.800000*%
%TD*%
%TA.AperFunction,ComponentPad*%
%ADD17C,1.800000*%
%TD*%
%TA.AperFunction,Conductor*%
%ADD18C,0.200000*%
%TD*%
G04 APERTURE END LIST*
D10*
%TO.P,RV1,1,1_1*%
%TO.N,VDD*%
X150916000Y-98598000D03*
D11*
%TO.P,RV1,2,2_2*%
%TO.N,Net-(U1C--)*%
X153416000Y-103598000D03*
%TO.P,RV1,3,3_3*%
%TO.N,GND*%
X155916000Y-98598000D03*
%TD*%
D12*
%TO.P,R8,1*%
%TO.N,Net-(D1-K)*%
X145034000Y-129540000D03*
%TO.P,R8,2*%
%TO.N,Net-(C4-Pad2)*%
X152654000Y-129540000D03*
%TD*%
%TO.P,R7,1*%
%TO.N,GND*%
X129540000Y-70866000D03*
%TO.P,R7,2*%
%TO.N,Net-(A1-D2)*%
X137160000Y-70866000D03*
%TD*%
%TO.P,R6,1*%
%TO.N,Net-(A1-D2)*%
X129540000Y-66294000D03*
%TO.P,R6,2*%
%TO.N,Net-(R6-Pad2)*%
X137160000Y-66294000D03*
%TD*%
%TO.P,R5,1*%
%TO.N,VDC*%
X101092000Y-127254000D03*
%TO.P,R5,2*%
%TO.N,GND*%
X108712000Y-127254000D03*
%TD*%
%TO.P,R3,1*%
%TO.N,Net-(U1C-+)*%
X157226000Y-86106000D03*
%TO.P,R3,2*%
%TO.N,Net-(U1B--)*%
X164846000Y-86106000D03*
%TD*%
%TO.P,R2,1*%
%TO.N,VDC*%
X157734000Y-76962000D03*
%TO.P,R2,2*%
%TO.N,Net-(C1-Pad1)*%
X165354000Y-76962000D03*
%TD*%
%TO.P,R1,1*%
%TO.N,Net-(C4-Pad2)*%
X176784000Y-87376000D03*
%TO.P,R1,2*%
%TO.N,Net-(C1-Pad1)*%
X184404000Y-87376000D03*
%TD*%
%TO.P,C4,1*%
%TO.N,Net-(D1-K)*%
X146832000Y-122682000D03*
%TO.P,C4,2*%
%TO.N,Net-(C4-Pad2)*%
X149332000Y-122682000D03*
%TD*%
%TO.P,C3,1*%
%TO.N,VDC*%
X118404000Y-130810000D03*
%TO.P,C3,2*%
%TO.N,GND*%
X120904000Y-130810000D03*
%TD*%
%TO.P,C2,1*%
%TO.N,Net-(C1-Pad1)*%
X170200000Y-89408000D03*
%TO.P,C2,2*%
%TO.N,Net-(U1C-+)*%
X172700000Y-89408000D03*
%TD*%
%TO.P,C1,1*%
%TO.N,Net-(C1-Pad1)*%
X170962000Y-81534000D03*
%TO.P,C1,2*%
%TO.N,Net-(U1B--)*%
X173462000Y-81534000D03*
%TD*%
D13*
%TO.P,A1,1,D1/TX_1*%
%TO.N,unconnected-(A1-D1{slash}TX-Pad1)*%
X87640000Y-61976000D03*
D14*
%TO.P,A1,2,D0/RX_2*%
%TO.N,unconnected-(A1-D0{slash}RX-Pad2)*%
X87640000Y-64516000D03*
%TO.P,A1,3,~{RESET}_3*%
%TO.N,unconnected-(A1-~{RESET}-Pad3)*%
X87640000Y-67056000D03*
%TO.P,A1,4,GND_4*%
%TO.N,GND*%
X87640000Y-69596000D03*
%TO.P,A1,5,D2_5*%
%TO.N,Net-(A1-D2)*%
X87640000Y-72136000D03*
%TO.P,A1,6,D3_6*%
%TO.N,unconnected-(A1-D3-Pad6)*%
X87640000Y-74676000D03*
%TO.P,A1,7,D4_7*%
%TO.N,unconnected-(A1-D4-Pad7)*%
X87640000Y-77216000D03*
%TO.P,A1,8,D5_8*%
%TO.N,unconnected-(A1-D5-Pad8)*%
X87640000Y-79756000D03*
%TO.P,A1,9,D6_9*%
%TO.N,unconnected-(A1-D6-Pad9)*%
X87640000Y-82296000D03*
%TO.P,A1,10,D7_10*%
%TO.N,unconnected-(A1-D7-Pad10)*%
X87640000Y-84836000D03*
%TO.P,A1,11,D8_11*%
%TO.N,unconnected-(A1-D8-Pad11)*%
X87640000Y-87376000D03*
%TO.P,A1,12,D9_12*%
%TO.N,unconnected-(A1-D9-Pad12)*%
X87640000Y-89916000D03*
%TO.P,A1,13,D10/CS_13*%
%TO.N,unconnected-(A1-D10{slash}CS-Pad13)*%
X87640000Y-92456000D03*
%TO.P,A1,14,D11/COPI_14*%
%TO.N,unconnected-(A1-D11{slash}COPI-Pad14)*%
X87640000Y-94996000D03*
%TO.P,A1,15,D12/CIPO_15*%
%TO.N,unconnected-(A1-D12{slash}CIPO-Pad15)*%
X87640000Y-97536000D03*
%TO.P,A1,16,D13/SCK_16*%
%TO.N,unconnected-(A1-D13{slash}SCK-Pad16)*%
X102880000Y-97536000D03*
%TO.P,A1,17,3V3_17*%
%TO.N,unconnected-(A1-3V3-Pad17)*%
X102880000Y-94996000D03*
%TO.P,A1,18,B0_18*%
%TO.N,unconnected-(A1-B0-Pad18)*%
X102880000Y-92456000D03*
%TO.P,A1,19,A0_19*%
%TO.N,unconnected-(A1-A0-Pad19)*%
X102880000Y-89916000D03*
%TO.P,A1,20,A1_20*%
%TO.N,unconnected-(A1-A1-Pad20)*%
X102880000Y-87376000D03*
%TO.P,A1,21,A2_21*%
%TO.N,unconnected-(A1-A2-Pad21)*%
X102880000Y-84836000D03*
%TO.P,A1,22,A3_22*%
%TO.N,unconnected-(A1-A3-Pad22)*%
X102880000Y-82296000D03*
%TO.P,A1,23,SDA/A4_23*%
%TO.N,unconnected-(A1-SDA{slash}A4-Pad23)*%
X102880000Y-79756000D03*
%TO.P,A1,24,SCL/A5_24*%
%TO.N,unconnected-(A1-SCL{slash}A5-Pad24)*%
X102880000Y-77216000D03*
%TO.P,A1,25,A6_25*%
%TO.N,unconnected-(A1-A6-Pad25)*%
X102880000Y-74676000D03*
%TO.P,A1,26,A7_26*%
%TO.N,unconnected-(A1-A7-Pad26)*%
X102880000Y-72136000D03*
%TO.P,A1,27,VUSB/5V_27*%
%TO.N,VDD*%
X102880000Y-69596000D03*
%TO.P,A1,28,B1_28*%
%TO.N,unconnected-(A1-B1-Pad28)*%
X102880000Y-67056000D03*
%TO.P,A1,29,GND_29*%
%TO.N,GND*%
X102880000Y-64516000D03*
%TO.P,A1,30,VIN_30*%
%TO.N,unconnected-(A1-VIN-Pad30)*%
X102880000Y-61976000D03*
%TD*%
D15*
%TO.P,U1,1*%
%TO.N,Net-(C4-Pad2)*%
X179578000Y-124455000D03*
D12*
%TO.P,U1,2,-_2*%
%TO.N,Net-(D1-K)*%
X182118000Y-124455000D03*
%TO.P,U1,3,+_3*%
%TO.N,VDD*%
X184658000Y-124455000D03*
%TO.P,U1,4,V+_4*%
X187198000Y-124455000D03*
%TO.P,U1,5,+_5*%
%TO.N,VDC*%
X189738000Y-124455000D03*
%TO.P,U1,6,-_6*%
%TO.N,Net-(U1B--)*%
X192278000Y-124455000D03*
%TO.P,U1,7*%
%TO.N,Net-(U1C-+)*%
X194818000Y-124455000D03*
%TO.P,U1,8*%
%TO.N,Net-(R6-Pad2)*%
X194818000Y-116835000D03*
%TO.P,U1,9,-_9*%
%TO.N,Net-(U1C--)*%
X192278000Y-116835000D03*
%TO.P,U1,10,+_10*%
%TO.N,Net-(U1C-+)*%
X189738000Y-116835000D03*
%TO.P,U1,11,V-_11*%
%TO.N,GND*%
X187198000Y-116835000D03*
%TO.P,U1,12,+_12*%
X184658000Y-116835000D03*
%TO.P,U1,13,-_13*%
%TO.N,Net-(U1D--)*%
X182118000Y-116835000D03*
%TO.P,U1,14*%
X179578000Y-116835000D03*
%TD*%
%TO.P,R4,1*%
%TO.N,VDD*%
X101092000Y-132080000D03*
%TO.P,R4,2*%
%TO.N,VDC*%
X108712000Y-132080000D03*
%TD*%
D16*
%TO.P,D1,1,K_1*%
%TO.N,Net-(D1-K)*%
X170942000Y-135128000D03*
D17*
%TO.P,D1,2,A_2*%
%TO.N,VDD*%
X173482000Y-135128000D03*
%TD*%
%TO.N,Net-(U1C-+)*%
D18*
X159234000Y-84098000D02*
X157226000Y-86106000D01*
X159234000Y-76340680D02*
X159234000Y-84098000D01*
X158355321Y-75462000D02*
X159234000Y-76340680D01*
X144772365Y-75462000D02*
X158355321Y-75462000D01*
X136060000Y-66749635D02*
X144772365Y-75462000D01*
X136060000Y-65838365D02*
X136060000Y-66749635D01*
X136704365Y-65194000D02*
X136060000Y-65838365D01*
X172185685Y-65194000D02*
X136704365Y-65194000D01*
X195918000Y-88926315D02*
X172185685Y-65194000D01*
X195918000Y-123355000D02*
X195918000Y-88926315D01*
X194818000Y-124455000D02*
X195918000Y-123355000D01*
%TO.N,VDC*%
X177465000Y-136728000D02*
X189738000Y-124455000D01*
X118404000Y-130810000D02*
X124322000Y-136728000D01*
X124322000Y-136728000D02*
X177465000Y-136728000D01*
%TO.N,VDD*%
X150266365Y-136328000D02*
X121523182Y-107584817D01*
X121523182Y-107584817D02*
X121523182Y-105267182D01*
X172282000Y-136328000D02*
X150266365Y-136328000D01*
X121523182Y-105267182D02*
X128192365Y-98598000D01*
X173482000Y-135128000D02*
X172282000Y-136328000D01*
%TO.N,Net-(C1-Pad1)*%
X172462000Y-80034000D02*
X177062000Y-80034000D01*
X177062000Y-80034000D02*
X184404000Y-87376000D01*
X170962000Y-81534000D02*
X172462000Y-80034000D01*
%TO.N,Net-(U1C-+)*%
X158326000Y-85006000D02*
X157226000Y-86106000D01*
X169045635Y-85006000D02*
X158326000Y-85006000D01*
X172212000Y-81839635D02*
X169045635Y-85006000D01*
X172212000Y-81228365D02*
X172212000Y-81839635D01*
X173006365Y-80434000D02*
X172212000Y-81228365D01*
X173917635Y-80434000D02*
X173006365Y-80434000D01*
X178284000Y-84800365D02*
X173917635Y-80434000D01*
X178284000Y-87997320D02*
X178284000Y-84800365D01*
X176873320Y-89408000D02*
X178284000Y-87997320D01*
X172700000Y-89408000D02*
X176873320Y-89408000D01*
%TO.N,Net-(U1C--)*%
X147932000Y-117078000D02*
X147932000Y-126373635D01*
X143934000Y-113080000D02*
X147932000Y-117078000D01*
X147932000Y-126373635D02*
X152198365Y-130640000D01*
%TO.N,Net-(D1-K)*%
X146832000Y-127742000D02*
X145034000Y-129540000D01*
X146832000Y-122682000D02*
X146832000Y-127742000D01*
%TO.N,Net-(U1C--)*%
X191178000Y-115735000D02*
X192278000Y-116835000D01*
X189065000Y-115735000D02*
X191178000Y-115735000D01*
X188298000Y-116502000D02*
X189065000Y-115735000D01*
X187653635Y-117935000D02*
X188298000Y-117290635D01*
X152198365Y-130640000D02*
X175277744Y-130640000D01*
X175277744Y-130640000D02*
X181018000Y-124899744D01*
X188298000Y-117290635D02*
X188298000Y-116502000D01*
X181018000Y-123659365D02*
X186742365Y-117935000D01*
X153416000Y-103598000D02*
X143934000Y-113080000D01*
X186742365Y-117935000D02*
X187653635Y-117935000D01*
X181018000Y-124899744D02*
X181018000Y-123659365D01*
%TO.N,Net-(D1-K)*%
X171445000Y-135128000D02*
X170942000Y-135128000D01*
X182118000Y-124455000D02*
X171445000Y-135128000D01*
%TO.N,Net-(C4-Pad2)*%
X152654000Y-126004000D02*
X149332000Y-122682000D01*
X152654000Y-129540000D02*
X152654000Y-126004000D01*
%TO.N,Net-(A1-D2)*%
X132588000Y-66294000D02*
X137160000Y-70866000D01*
X129540000Y-66294000D02*
X132588000Y-66294000D01*
X108034000Y-71966000D02*
X136060000Y-71966000D01*
X102424365Y-68496000D02*
X104564000Y-68496000D01*
X104564000Y-68496000D02*
X108034000Y-71966000D01*
X98784365Y-72136000D02*
X102424365Y-68496000D01*
X136060000Y-71966000D02*
X137160000Y-70866000D01*
X87640000Y-72136000D02*
X98784365Y-72136000D01*
%TO.N,VDD*%
X99992000Y-126798365D02*
X121523182Y-105267182D01*
X99992000Y-130980000D02*
X99992000Y-126798365D01*
X128192365Y-98598000D02*
X150916000Y-98598000D01*
X101092000Y-132080000D02*
X99992000Y-130980000D01*
%TO.N,Net-(D1-K)*%
X150622000Y-135128000D02*
X145034000Y-129540000D01*
X170942000Y-135128000D02*
X150622000Y-135128000D01*
%TO.N,Net-(U1C-+)*%
X191008000Y-118105000D02*
X189738000Y-116835000D01*
X191822365Y-125555000D02*
X191008000Y-124740635D01*
X193718000Y-125555000D02*
X191822365Y-125555000D01*
X194818000Y-124455000D02*
X193718000Y-125555000D01*
X191008000Y-124740635D02*
X191008000Y-118105000D01*
%TO.N,Net-(U1B--)*%
X177884000Y-85956000D02*
X173462000Y-81534000D01*
X177884000Y-87831635D02*
X177884000Y-85956000D01*
X177239635Y-88476000D02*
X177884000Y-87831635D01*
X176328365Y-88476000D02*
X177239635Y-88476000D01*
X175684000Y-87831635D02*
X176328365Y-88476000D01*
X169433730Y-87831635D02*
X175684000Y-87831635D01*
X167132000Y-90133365D02*
X169433730Y-87831635D01*
X193378000Y-116379365D02*
X167132000Y-90133365D01*
X193378000Y-123355000D02*
X193378000Y-116379365D01*
X192278000Y-124455000D02*
X193378000Y-123355000D01*
%TO.N,Net-(U1D--)*%
X179578000Y-116835000D02*
X182118000Y-116835000D01*
%TO.N,Net-(C1-Pad1)*%
X166390000Y-76962000D02*
X165354000Y-76962000D01*
X170962000Y-81534000D02*
X166390000Y-76962000D01*
X171300000Y-90508000D02*
X170200000Y-89408000D01*
X181272000Y-90508000D02*
X171300000Y-90508000D01*
X184404000Y-87376000D02*
X181272000Y-90508000D01*
%TO.N,Net-(U1B--)*%
X168890000Y-86106000D02*
X173462000Y-81534000D01*
X164846000Y-86106000D02*
X168890000Y-86106000D01*
%TO.N,Net-(C4-Pad2)*%
X177805000Y-122682000D02*
X179578000Y-124455000D01*
X149332000Y-122682000D02*
X177805000Y-122682000D01*
X154836000Y-98150649D02*
X154836000Y-99713000D01*
X176784000Y-87376000D02*
X165610649Y-87376000D01*
X165610649Y-87376000D02*
X154836000Y-98150649D01*
X154836000Y-99713000D02*
X179578000Y-124455000D01*
%TO.N,Net-(R6-Pad2)*%
X172720000Y-66294000D02*
X137160000Y-66294000D01*
X194818000Y-116835000D02*
X194818000Y-88392000D01*
X194818000Y-88392000D02*
X172720000Y-66294000D01*
%TO.N,VDD*%
X150916000Y-81320000D02*
X150916000Y-98598000D01*
X150368000Y-80264000D02*
X150368000Y-80772000D01*
X155987635Y-80264000D02*
X150368000Y-80264000D01*
X158834000Y-77417635D02*
X155987635Y-80264000D01*
X158189635Y-75862000D02*
X158834000Y-76506365D01*
X109146000Y-75862000D02*
X158189635Y-75862000D01*
X102880000Y-69596000D02*
X109146000Y-75862000D01*
X158834000Y-76506365D02*
X158834000Y-77417635D01*
X150368000Y-80772000D02*
X150916000Y-81320000D01*
%TO.N,GND*%
X103124000Y-64516000D02*
X109474000Y-70866000D01*
X102880000Y-64516000D02*
X103124000Y-64516000D01*
X109474000Y-70866000D02*
X129540000Y-70866000D01*
X87640000Y-69596000D02*
X97800000Y-69596000D01*
X97800000Y-69596000D02*
X102880000Y-64516000D01*
%TO.N,VDC*%
X107612000Y-133180000D02*
X108712000Y-132080000D01*
X99592000Y-132135635D02*
X100636365Y-133180000D01*
X100636365Y-133180000D02*
X107612000Y-133180000D01*
X149262679Y-76962000D02*
X99592000Y-126632679D01*
X157734000Y-76962000D02*
X149262679Y-76962000D01*
X99592000Y-126632679D02*
X99592000Y-132135635D01*
%TO.N,GND*%
X166538000Y-109220000D02*
X155916000Y-98598000D01*
X177043000Y-109220000D02*
X166538000Y-109220000D01*
X184658000Y-116835000D02*
X177043000Y-109220000D01*
X187198000Y-116835000D02*
X184658000Y-116835000D01*
X117348000Y-127254000D02*
X120904000Y-130810000D01*
X108712000Y-127254000D02*
X117348000Y-127254000D01*
%TO.N,VDC*%
X103378000Y-127254000D02*
X101092000Y-127254000D01*
X108204000Y-132080000D02*
X103378000Y-127254000D01*
X108712000Y-132080000D02*
X108204000Y-132080000D01*
X116840000Y-132080000D02*
X108712000Y-132080000D01*
X118110000Y-130810000D02*
X116840000Y-132080000D01*
X118404000Y-130810000D02*
X118110000Y-130810000D01*
%TO.N,VDD*%
X184658000Y-124455000D02*
X187198000Y-124455000D01*
X173482000Y-135128000D02*
X184155000Y-124455000D01*
X184155000Y-124455000D02*
X184658000Y-124455000D01*
%TD*%
M02*
