M48
; DRILL file KiCad 10.0.3 date 2026-05-29T13:02:55
; FORMAT={-:-/ absolute / metric / decimal}
; #@! TF.CreationDate,2026-05-29T13:02:55-04:00
; #@! TF.GenerationSoftware,Kicad,Pcbnew,10.0.3
; #@! TF.FileFunction,Plated,1,2,PTH
FMAT,2
METRIC
; #@! TA.AperFunction,Plated,PTH,ComponentDrill
T1C0.800
; #@! TA.AperFunction,Plated,PTH,ComponentDrill
T2C0.900
; #@! TA.AperFunction,Plated,PTH,ComponentDrill
T3C1.000
%
G90
G05
T1
X101.092Y-127.254
X101.092Y-132.08
X108.712Y-127.254
X108.712Y-132.08
X118.404Y-130.81
X120.904Y-130.81
X129.54Y-66.294
X129.54Y-70.866
X137.16Y-66.294
X137.16Y-70.866
X145.034Y-129.54
X146.832Y-122.682
X149.332Y-122.682
X152.654Y-129.54
X157.226Y-86.106
X157.734Y-76.962
X164.846Y-86.106
X165.354Y-76.962
X170.2Y-89.408
X170.962Y-81.534
X172.7Y-89.408
X173.462Y-81.534
X176.784Y-87.376
X179.578Y-116.835
X179.578Y-124.455
X182.118Y-116.835
X182.118Y-124.455
X184.404Y-87.376
X184.658Y-116.835
X184.658Y-124.455
X187.198Y-116.835
X187.198Y-124.455
X189.738Y-116.835
X189.738Y-124.455
X192.278Y-116.835
X192.278Y-124.455
X194.818Y-116.835
X194.818Y-124.455
T2
X170.942Y-135.128
X173.482Y-135.128
T3
X87.64Y-61.976
X87.64Y-64.516
X87.64Y-67.056
X87.64Y-69.596
X87.64Y-72.136
X87.64Y-74.676
X87.64Y-77.216
X87.64Y-79.756
X87.64Y-82.296
X87.64Y-84.836
X87.64Y-87.376
X87.64Y-89.916
X87.64Y-92.456
X87.64Y-94.996
X87.64Y-97.536
X102.88Y-61.976
X102.88Y-64.516
X102.88Y-67.056
X102.88Y-69.596
X102.88Y-72.136
X102.88Y-74.676
X102.88Y-77.216
X102.88Y-79.756
X102.88Y-82.296
X102.88Y-84.836
X102.88Y-87.376
X102.88Y-89.916
X102.88Y-92.456
X102.88Y-94.996
X102.88Y-97.536
X150.916Y-98.598
X153.416Y-103.598
X155.916Y-98.598
M30
